<svg xmlns="http://www.w3.org/2000/svg" width="840" height="170" viewBox="0 0 840 170" role="img" aria-label="Languages across my repositories">
  <defs>
    <linearGradient id="glass" x1="0" y1="0" x2="0" y2="1">
      <stop offset="0" stop-color="#ffffff" stop-opacity="0.04"/>
      <stop offset="1" stop-color="#ffffff" stop-opacity="0"/>
    </linearGradient>
  </defs>
  <rect x="1" y="1" width="838" height="168" rx="12" fill="#021449" stroke="#1b3a7a" stroke-width="1.5"/>
  <rect x="1" y="1" width="838" height="42" rx="12" fill="#0a1f5e"/>
  <rect x="1" y="30" width="838" height="12" fill="#0a1f5e"/>
  <rect x="1" y="1" width="838" height="168" rx="12" fill="url(#glass)"/>
  <line x1="1" y1="42" x2="839" y2="42" stroke="#1b3a7a" stroke-width="1"/>
  <circle cx="25" cy="21" r="6" fill="#ff5f56"/>
  <circle cx="45" cy="21" r="6" fill="#ffbd2e"/>
  <circle cx="65" cy="21" r="6" fill="#21EA9D"/>
  <text x="420" y="26" text-anchor="middle" fill="#8f9cc4" font-family="ui-monospace,SFMono-Regular,Consolas,'DejaVu Sans Mono',Menlo,monospace" font-size="13">tanu@aipm: ~/languages</text>
  <text x="26" y="72" font-family="ui-monospace,SFMono-Regular,Consolas,'DejaVu Sans Mono',Menlo,monospace" font-size="13.5" xml:space="preserve"><tspan fill="#21EA9D">tanu</tspan><tspan fill="#8f9cc4">@</tspan><tspan fill="#4fd6e0">aipm</tspan><tspan fill="#8f9cc4">:</tspan><tspan fill="#5a9dff">~</tspan><tspan fill="#8f9cc4">$ </tspan><tspan fill="#eaf1ff">scc --by-repo</tspan></text><rect x="254" y="59" width="8" height="15" fill="#eaf1ff"><animate attributeName="opacity" values="1;1;0;0;1" keyTimes="0;0.45;0.5;0.95;1" dur="1.05s" repeatCount="indefinite"/></rect>
  
  <clipPath id="barclip"><rect x="40" y="92" width="760" height="16" rx="8"/></clipPath>
  <rect x="40" y="92" width="760" height="16" rx="8" fill="#0a1f5e"/>
  <g clip-path="url(#barclip)"><rect x="40.0" y="92" width="221.0" height="16" fill="#e34c26"/><rect x="260.4" y="92" width="91.8" height="16" fill="#f1e05a"/><rect x="351.6" y="92" width="91.8" height="16" fill="#3572A5"/><rect x="442.8" y="92" width="221.0" height="16" fill="#DA5B0B"/><rect x="663.2" y="92" width="46.2" height="16" fill="#b07219"/><rect x="708.8" y="92" width="46.2" height="16" fill="#00B4AB"/><rect x="754.4" y="92" width="46.2" height="16" fill="#663399"/></g>
  <circle cx="46" cy="130" r="5" fill="#e34c26"/><text x="58" y="134" font-family="Segoe UI,-apple-system,Helvetica,Arial,sans-serif" font-size="13" fill="#eaf1ff">HTML 29%</text><circle cx="140.8" cy="130" r="5" fill="#f1e05a"/><text x="152.8" y="134" font-family="Segoe UI,-apple-system,Helvetica,Arial,sans-serif" font-size="13" fill="#eaf1ff">JavaScript 12%</text><circle cx="278.2" cy="130" r="5" fill="#3572A5"/><text x="290.2" y="134" font-family="Segoe UI,-apple-system,Helvetica,Arial,sans-serif" font-size="13" fill="#eaf1ff">Python 12%</text><circle cx="387.2" cy="130" r="5" fill="#DA5B0B"/><text x="399.2" y="134" font-family="Segoe UI,-apple-system,Helvetica,Arial,sans-serif" font-size="13" fill="#eaf1ff">Jupyter 29%</text><circle cx="503.29999999999995" cy="130" r="5" fill="#b07219"/><text x="515.3" y="134" font-family="Segoe UI,-apple-system,Helvetica,Arial,sans-serif" font-size="13" fill="#eaf1ff">Java 6%</text><circle cx="591" cy="130" r="5" fill="#00B4AB"/><text x="603" y="134" font-family="Segoe UI,-apple-system,Helvetica,Arial,sans-serif" font-size="13" fill="#eaf1ff">Dart 6%</text><circle cx="678.7" cy="130" r="5" fill="#663399"/><text x="690.7" y="134" font-family="Segoe UI,-apple-system,Helvetica,Arial,sans-serif" font-size="13" fill="#eaf1ff">CSS 6%</text>
</svg>
